# xmcd
#
# Track frame offsets: 
#        150
#        33044
#        139325
#        160900
#        172748
#
# Disc length: 2823 seconds
#
# Revision: 0
# Processed by: cddbd v1.5.1PL0 Copyright (c) Steve Scherf et al.
# Submitted via: ExactAudioCopy v0.95a5
#
DISCID=330b0505
DTITLE=Allman Brothers Band - Live in Cleveland 2005-07-11 Disc 3
DYEAR=2005
DGENRE=Rock
TTITLE0=Melissa
TTITLE1=Les Brers in A Minor > Drums
TTITLE2=Les Brers in A Minor (Reprise)
TTITLE3=Crowd
TTITLE4=Southbound
EXTD=
EXTT0=
EXTT1=
EXTT2=
EXTT3=
EXTT4=
PLAYORDER=
